<?xml version="1.0" encoding="UTF-8"?>
<svg version="1.1" xmlns="http://www.w3.org/2000/svg" width="32" height="32">
<path d="M0 0 C0.66 0 1.32 0 2 0 C2.33 5.94 2.66 11.88 3 18 C4.65 16.35 6.3 14.7 8 13 C8.99 13.33 9.98 13.66 11 14 C10.06409496 15.1055189 9.12620142 16.20935453 8.1875 17.3125 C7.66542969 17.92738281 7.14335937 18.54226562 6.60546875 19.17578125 C5.12827531 20.85424679 3.59960869 22.43882034 2 24 C-1.21524305 22.59155282 -3.32183868 20.89655214 -5.75 18.375 C-6.36359375 17.74335938 -6.9771875 17.11171875 -7.609375 16.4609375 C-8.06828125 15.97882812 -8.5271875 15.49671875 -9 15 C-8.67 14.34 -8.34 13.68 -8 13 C-4.90837736 14.38589981 -3.50816459 15.49183541 -1 18 C-0.505 9.09 -0.505 9.09 0 0 Z " fill="#000000" transform="translate(15,4)"/>
</svg>
